<svg xmlns="http://www.w3.org/2000/svg" viewBox="0 0 300 600" width="300" height="600">
  <defs>
    <linearGradient id="cc1-bg" x1="0" y1="0" x2="0" y2="1">
      <stop offset="0" stop-color="#2b8cff"/>
      <stop offset="1" stop-color="#0e4bb3"/>
    </linearGradient>
    <linearGradient id="cc1-card" x1="0" y1="0" x2="1" y2="1">
      <stop offset="0" stop-color="#3b9dff"/>
      <stop offset="1" stop-color="#1f68d8"/>
    </linearGradient>
  </defs>
  <rect width="300" height="600" fill="#f2f5fa"/>
  <rect width="300" height="220" fill="url(#cc1-bg)"/>
  <text x="20" y="46" font-family="Segoe UI, Arial" font-size="14" fill="#ffffff" opacity="0.85">Hello, Guga</text>
  <text x="20" y="68" font-family="Segoe UI, Arial" font-size="19" font-weight="700" fill="#ffffff">Your Balance</text>
  <text x="20" y="110" font-family="Segoe UI, Arial" font-size="34" font-weight="800" fill="#ffffff">$ 1,842.50</text>
  <rect x="20" y="140" width="120" height="58" rx="10" fill="#ffffff" opacity="0.18"/>
  <text x="34" y="162" font-family="Segoe UI, Arial" font-size="11" fill="#ffffff">Income</text>
  <text x="34" y="184" font-family="Segoe UI, Arial" font-size="16" font-weight="700" fill="#ffffff">$ 3,200</text>
  <rect x="160" y="140" width="120" height="58" rx="10" fill="#ffffff" opacity="0.18"/>
  <text x="174" y="162" font-family="Segoe UI, Arial" font-size="11" fill="#ffffff">Spent</text>
  <text x="174" y="184" font-family="Segoe UI, Arial" font-size="16" font-weight="700" fill="#ffffff">$ 1,357</text>
  <text x="20" y="252" font-family="Segoe UI, Arial" font-size="14" font-weight="700" fill="#21324a">Recent Transactions</text>
  <g font-family="Segoe UI, Arial">
    <rect x="16" y="268" width="268" height="56" rx="10" fill="#ffffff" stroke="#e3e8f1"/>
    <circle cx="42" cy="296" r="16" fill="#ffe3a2"/>
    <text x="36" y="302" font-size="16">🍔</text>
    <text x="68" y="292" font-size="13" font-weight="700" fill="#21324a">Lunch</text>
    <text x="68" y="308" font-size="11" fill="#7a8699">Food · Today</text>
    <text x="272" y="302" text-anchor="end" font-size="14" font-weight="700" fill="#d04848">- $12.40</text>

    <rect x="16" y="332" width="268" height="56" rx="10" fill="#ffffff" stroke="#e3e8f1"/>
    <circle cx="42" cy="360" r="16" fill="#c4e4ff"/>
    <text x="36" y="366" font-size="16">🚌</text>
    <text x="68" y="356" font-size="13" font-weight="700" fill="#21324a">Transport</text>
    <text x="68" y="372" font-size="11" fill="#7a8699">Bus · Today</text>
    <text x="272" y="366" text-anchor="end" font-size="14" font-weight="700" fill="#d04848">- $2.50</text>

    <rect x="16" y="396" width="268" height="56" rx="10" fill="#ffffff" stroke="#e3e8f1"/>
    <circle cx="42" cy="424" r="16" fill="#c8f5c8"/>
    <text x="36" y="430" font-size="16">💼</text>
    <text x="68" y="420" font-size="13" font-weight="700" fill="#21324a">Salary</text>
    <text x="68" y="436" font-size="11" fill="#7a8699">Income · Apr 20</text>
    <text x="272" y="430" text-anchor="end" font-size="14" font-weight="700" fill="#1e9b4f">+ $3,200</text>

    <rect x="16" y="460" width="268" height="56" rx="10" fill="#ffffff" stroke="#e3e8f1"/>
    <circle cx="42" cy="488" r="16" fill="#ffd5d5"/>
    <text x="36" y="494" font-size="16">🎮</text>
    <text x="68" y="484" font-size="13" font-weight="700" fill="#21324a">Games</text>
    <text x="68" y="500" font-size="11" fill="#7a8699">Leisure · Apr 19</text>
    <text x="272" y="494" text-anchor="end" font-size="14" font-weight="700" fill="#d04848">- $29.99</text>
  </g>
  <rect x="0" y="544" width="300" height="56" fill="#ffffff" stroke="#e3e8f1"/>
  <g font-family="Segoe UI, Arial" font-size="10" fill="#21324a" text-anchor="middle">
    <text x="40" y="582">Home</text>
    <text x="110" y="582">Stats</text>
    <text x="190" y="582">Budget</text>
    <text x="260" y="582">Me</text>
    <circle cx="40" cy="562" r="4" fill="#2b8cff"/>
  </g>
</svg>
