<svg xmlns="http://www.w3.org/2000/svg" viewBox="0 0 300 600" width="300" height="600">
  <rect width="300" height="600" fill="#f2f5fa"/>
  <rect width="300" height="80" fill="#0e4bb3"/>
  <text x="20" y="36" font-family="Segoe UI, Arial" font-size="14" fill="#ffffff" opacity="0.85">April 2026</text>
  <text x="20" y="60" font-family="Segoe UI, Arial" font-size="19" font-weight="700" fill="#ffffff">Monthly Stats</text>

  <g font-family="Segoe UI, Arial">
    <rect x="16" y="100" width="268" height="160" rx="12" fill="#ffffff" stroke="#e3e8f1"/>
    <text x="30" y="124" font-size="13" font-weight="700" fill="#21324a">Spending Trend</text>
    <polyline points="30,230 70,200 110,210 150,170 190,190 230,150 270,170"
              fill="none" stroke="#2b8cff" stroke-width="3" stroke-linejoin="round"/>
    <circle cx="30" cy="230" r="3" fill="#2b8cff"/>
    <circle cx="70" cy="200" r="3" fill="#2b8cff"/>
    <circle cx="110" cy="210" r="3" fill="#2b8cff"/>
    <circle cx="150" cy="170" r="3" fill="#2b8cff"/>
    <circle cx="190" cy="190" r="3" fill="#2b8cff"/>
    <circle cx="230" cy="150" r="3" fill="#2b8cff"/>
    <circle cx="270" cy="170" r="3" fill="#2b8cff"/>
    <g font-size="9" fill="#7a8699" text-anchor="middle">
      <text x="30" y="250">W1</text>
      <text x="70" y="250">W2</text>
      <text x="110" y="250">W3</text>
      <text x="150" y="250">W4</text>
      <text x="190" y="250">W5</text>
      <text x="230" y="250">W6</text>
      <text x="270" y="250">W7</text>
    </g>

    <rect x="16" y="280" width="268" height="240" rx="12" fill="#ffffff" stroke="#e3e8f1"/>
    <text x="30" y="304" font-size="13" font-weight="700" fill="#21324a">Categories</text>

    <rect x="30" y="320" width="240" height="10" rx="5" fill="#edf0f6"/>
    <rect x="30" y="320" width="170" height="10" rx="5" fill="#2b8cff"/>
    <text x="30" y="348" font-size="11" fill="#21324a">Food</text>
    <text x="270" y="348" text-anchor="end" font-size="11" fill="#21324a">$420</text>

    <rect x="30" y="358" width="240" height="10" rx="5" fill="#edf0f6"/>
    <rect x="30" y="358" width="120" height="10" rx="5" fill="#f0a93a"/>
    <text x="30" y="386" font-size="11" fill="#21324a">Transport</text>
    <text x="270" y="386" text-anchor="end" font-size="11" fill="#21324a">$210</text>

    <rect x="30" y="396" width="240" height="10" rx="5" fill="#edf0f6"/>
    <rect x="30" y="396" width="90" height="10" rx="5" fill="#e85c6d"/>
    <text x="30" y="424" font-size="11" fill="#21324a">Leisure</text>
    <text x="270" y="424" text-anchor="end" font-size="11" fill="#21324a">$180</text>

    <rect x="30" y="434" width="240" height="10" rx="5" fill="#edf0f6"/>
    <rect x="30" y="434" width="60" height="10" rx="5" fill="#1e9b4f"/>
    <text x="30" y="462" font-size="11" fill="#21324a">Bills</text>
    <text x="270" y="462" text-anchor="end" font-size="11" fill="#21324a">$140</text>

    <rect x="30" y="472" width="240" height="10" rx="5" fill="#edf0f6"/>
    <rect x="30" y="472" width="30" height="10" rx="5" fill="#8a6fd9"/>
    <text x="30" y="500" font-size="11" fill="#21324a">Other</text>
    <text x="270" y="500" text-anchor="end" font-size="11" fill="#21324a">$80</text>
  </g>

  <rect x="0" y="544" width="300" height="56" fill="#ffffff" stroke="#e3e8f1"/>
  <g font-family="Segoe UI, Arial" font-size="10" fill="#21324a" text-anchor="middle">
    <text x="40" y="582">Home</text>
    <text x="110" y="582">Stats</text>
    <text x="190" y="582">Budget</text>
    <text x="260" y="582">Me</text>
    <circle cx="110" cy="562" r="4" fill="#2b8cff"/>
  </g>
</svg>
